<svg width="340" height="170" viewBox="0 0 340 170" fill="none" xmlns="http://www.w3.org/2000/svg">
<circle cx="69.5" cy="85.5" r="69.5" fill="url(#paint0_linear_629_367)"/>
<path d="M72.3182 78H68.0909C67.8409 76.7841 67.4034 75.7159 66.7784 74.7955C66.1648 73.875 65.4148 73.1023 64.5284 72.4773C63.6534 71.8409 62.6818 71.3636 61.6136 71.0455C60.5455 70.7273 59.4318 70.5682 58.2727 70.5682C56.1591 70.5682 54.2443 71.1023 52.5284 72.1705C50.8239 73.2386 49.4659 74.8125 48.4545 76.892C47.4545 78.9716 46.9545 81.5227 46.9545 84.5455C46.9545 87.5682 47.4545 90.1193 48.4545 92.1989C49.4659 94.2784 50.8239 95.8523 52.5284 96.9205C54.2443 97.9886 56.1591 98.5227 58.2727 98.5227C59.4318 98.5227 60.5455 98.3636 61.6136 98.0455C62.6818 97.7273 63.6534 97.2557 64.5284 96.6307C65.4148 95.9943 66.1648 95.2159 66.7784 94.2955C67.4034 93.3636 67.8409 92.2955 68.0909 91.0909H72.3182C72 92.875 71.4205 94.4716 70.5795 95.8807C69.7386 97.2898 68.6932 98.4886 67.4432 99.4773C66.1932 100.455 64.7898 101.199 63.233 101.71C61.6875 102.222 60.0341 102.477 58.2727 102.477C55.2955 102.477 52.6477 101.75 50.3295 100.295C48.0114 98.8409 46.1875 96.7727 44.858 94.0909C43.5284 91.4091 42.8636 88.2273 42.8636 84.5455C42.8636 80.8636 43.5284 77.6818 44.858 75C46.1875 72.3182 48.0114 70.25 50.3295 68.7955C52.6477 67.3409 55.2955 66.6136 58.2727 66.6136C60.0341 66.6136 61.6875 66.8693 63.233 67.3807C64.7898 67.892 66.1932 68.642 67.4432 69.6307C68.6932 70.608 69.7386 71.8011 70.5795 73.2102C71.4205 74.608 72 76.2045 72.3182 78ZM80.581 102H76.1491L88.9673 67.0909H93.331L106.149 102H101.717L91.2855 72.6136H91.0128L80.581 102ZM82.2173 88.3636H100.081V92.1136H82.2173V88.3636ZM111.587 102V67.0909H123.382C126.109 67.0909 128.348 67.5568 130.098 68.4886C131.848 69.4091 133.143 70.6761 133.984 72.2898C134.825 73.9034 135.246 75.7386 135.246 77.7955C135.246 79.8523 134.825 81.6761 133.984 83.267C133.143 84.858 131.854 86.108 130.115 87.017C128.376 87.9148 126.155 88.3636 123.45 88.3636H113.905V84.5455H123.314C125.178 84.5455 126.678 84.2727 127.814 83.7273C128.962 83.1818 129.791 82.4091 130.303 81.4091C130.825 80.3977 131.087 79.1932 131.087 77.7955C131.087 76.3977 130.825 75.1761 130.303 74.1307C129.78 73.0852 128.945 72.2784 127.797 71.7102C126.649 71.1307 125.132 70.8409 123.246 70.8409H115.814V102H111.587ZM128.018 86.3182L136.609 102H131.7L123.246 86.3182H128.018ZM142.29 102V67.0909H154.085C156.824 67.0909 159.063 67.5852 160.801 68.5739C162.551 69.5511 163.847 70.875 164.688 72.5455C165.528 74.2159 165.949 76.0795 165.949 78.1364C165.949 80.1932 165.528 82.0625 164.688 83.7443C163.858 85.4261 162.574 86.767 160.835 87.767C159.097 88.7557 156.869 89.25 154.153 89.25H145.699V85.5H154.017C155.892 85.5 157.398 85.1761 158.534 84.5284C159.67 83.8807 160.494 83.0057 161.006 81.9034C161.528 80.7898 161.79 79.5341 161.79 78.1364C161.79 76.7386 161.528 75.4886 161.006 74.3864C160.494 73.2841 159.665 72.4205 158.517 71.7955C157.369 71.1591 155.847 70.8409 153.949 70.8409H146.517V102H142.29ZM172.759 102V67.0909H193.827V70.8409H176.986V82.6364H192.736V86.3864H176.986V98.25H194.099V102H172.759ZM211.946 67.0909H216.787L226.469 83.3864H226.878L236.56 67.0909H241.401L228.787 87.6136V102H224.56V87.6136L211.946 67.0909ZM274.682 84.5455C274.682 88.2273 274.017 91.4091 272.688 94.0909C271.358 96.7727 269.534 98.8409 267.216 100.295C264.898 101.75 262.25 102.477 259.273 102.477C256.295 102.477 253.648 101.75 251.33 100.295C249.011 98.8409 247.188 96.7727 245.858 94.0909C244.528 91.4091 243.864 88.2273 243.864 84.5455C243.864 80.8636 244.528 77.6818 245.858 75C247.188 72.3182 249.011 70.25 251.33 68.7955C253.648 67.3409 256.295 66.6136 259.273 66.6136C262.25 66.6136 264.898 67.3409 267.216 68.7955C269.534 70.25 271.358 72.3182 272.688 75C274.017 77.6818 274.682 80.8636 274.682 84.5455ZM270.591 84.5455C270.591 81.5227 270.085 78.9716 269.074 76.892C268.074 74.8125 266.716 73.2386 265 72.1705C263.295 71.1023 261.386 70.5682 259.273 70.5682C257.159 70.5682 255.244 71.1023 253.528 72.1705C251.824 73.2386 250.466 74.8125 249.455 76.892C248.455 78.9716 247.955 81.5227 247.955 84.5455C247.955 87.5682 248.455 90.1193 249.455 92.1989C250.466 94.2784 251.824 95.8523 253.528 96.9205C255.244 97.9886 257.159 98.5227 259.273 98.5227C261.386 98.5227 263.295 97.9886 265 96.9205C266.716 95.8523 268.074 94.2784 269.074 92.1989C270.085 90.1193 270.591 87.5682 270.591 84.5455ZM281.79 102V67.0909H286.017V98.25H302.244V102H281.79ZM336.885 84.5455C336.885 88.2273 336.22 91.4091 334.891 94.0909C333.561 96.7727 331.737 98.8409 329.419 100.295C327.101 101.75 324.453 102.477 321.476 102.477C318.499 102.477 315.851 101.75 313.533 100.295C311.214 98.8409 309.391 96.7727 308.061 94.0909C306.732 91.4091 306.067 88.2273 306.067 84.5455C306.067 80.8636 306.732 77.6818 308.061 75C309.391 72.3182 311.214 70.25 313.533 68.7955C315.851 67.3409 318.499 66.6136 321.476 66.6136C324.453 66.6136 327.101 67.3409 329.419 68.7955C331.737 70.25 333.561 72.3182 334.891 75C336.22 77.6818 336.885 80.8636 336.885 84.5455ZM332.794 84.5455C332.794 81.5227 332.288 78.9716 331.277 76.892C330.277 74.8125 328.919 73.2386 327.203 72.1705C325.499 71.1023 323.589 70.5682 321.476 70.5682C319.362 70.5682 317.447 71.1023 315.732 72.1705C314.027 73.2386 312.669 74.8125 311.658 76.892C310.658 78.9716 310.158 81.5227 310.158 84.5455C310.158 87.5682 310.658 90.1193 311.658 92.1989C312.669 94.2784 314.027 95.8523 315.732 96.9205C317.447 97.9886 319.362 98.5227 321.476 98.5227C323.589 98.5227 325.499 97.9886 327.203 96.9205C328.919 95.8523 330.277 94.2784 331.277 92.1989C332.288 90.1193 332.794 87.5682 332.794 84.5455Z" fill="black"/>
<defs>
<linearGradient id="paint0_linear_629_367" x1="41.5" y1="44" x2="111" y2="134" gradientUnits="userSpaceOnUse">
<stop stop-color="#FF8181"/>
<stop offset="1" stop-color="#A281FF"/>
</linearGradient>
</defs>
</svg>
